<svg width="205" height="25" viewBox="0 0 205 25" fill="none" xmlns="http://www.w3.org/2000/svg">
<path fill-rule="evenodd" clip-rule="evenodd" d="M44.9699 6.45646C44.9699 9.83484 42.5675 10.7357 40.8408 10.7357C39.114 10.7357 36.7116 9.83484 36.7116 6.45646C36.7116 3.003 39.114 2.1021 40.8408 2.1021C42.5675 2.17718 44.9699 3.003 44.9699 6.45646ZM48.123 6.45646C48.123 0.675675 42.7927 0 40.7657 0C38.7387 0 33.4083 0.675675 33.4083 6.45646C33.4083 12.1622 38.7387 12.9129 40.7657 12.9129C42.7927 12.9129 48.123 12.1622 48.123 6.45646ZM59.2342 4.12913C59.2342 4.87988 58.9339 6.00601 56.8318 6.00601H53.8287V2.4024H56.4564C58.4834 2.4024 59.2342 2.92793 59.2342 4.12913ZM62.4624 4.27928C62.4624 1.87688 60.7357 0.300301 57.7327 0.300301H50.6756V12.6126H53.8287V8.10811H57.5074C61.7116 8.10811 62.4624 5.33033 62.4624 4.27928ZM73.8738 12.6126V2.4024H69.5194V7.65766C69.5194 10.8108 68.5435 12.9129 65.5405 12.9129C64.8648 12.9129 64.1891 12.8378 63.6636 12.7628V10.7357C63.8137 10.8108 64.114 10.8108 64.5645 10.8108C65.9909 10.8108 66.3663 9.98499 66.3663 7.35736V0.300301H77.102V12.6126H73.8738ZM89.5645 12.6126V3.82883H89.4894L83.2582 12.6126H79.8798V0.300301H83.033V8.85886L89.114 0.300301H92.7176V12.6126H89.5645ZM104.655 12.6126V7.13213H98.7236V12.6126H95.4954V0.300301H98.6486V4.95496H104.58V0.300301H107.733V12.6126H104.655ZM119.219 7.95796H115.09L117.117 3.07808H117.192L119.219 7.95796ZM124.399 12.6126L118.994 0.375375H115.315L109.835 12.6126H113.213L114.264 10.0601H119.895L120.946 12.6126H124.399ZM135.435 5.63063H131.682C130.03 5.63063 129.204 4.95496 129.204 3.97898C129.204 3.3033 129.805 2.4024 131.456 2.4024H135.435V5.63063ZM138.589 12.6126V0.300301H130.781C127.778 0.300301 125.976 2.1021 125.976 4.05405C125.976 6.00601 127.703 7.05706 129.429 7.58258L125.676 12.6126H129.429L133.033 7.80781H135.435V12.6126H138.589ZM156.306 4.12913C156.306 4.87988 156.006 6.00601 153.904 6.00601H150.901V2.4024H153.453C155.555 2.4024 156.306 2.92793 156.306 4.12913ZM159.534 4.27928C159.534 1.87688 157.733 0.300301 154.805 0.300301H147.823V12.6126H150.976V8.10811H154.655C158.784 8.10811 159.534 5.33033 159.534 4.27928ZM161.937 12.6126V0.300301H173.198V2.47748H165.09V5.10511H172.522V7.28228H165.09V10.4354H173.574V12.6126H161.937ZM185.886 12.6126L181.156 7.20721L179.655 8.48348V12.6126H176.501V0.300301H179.655V5.25526L185.51 0.300301H189.64L183.333 5.33033L190.015 12.5375H185.886V12.6126ZM199.775 7.95796H195.721L197.673 3.07808H197.748L199.775 7.95796ZM204.955 12.6126L199.549 0.375375H195.871L190.465 12.6126H193.844L194.895 10.0601H200.525L201.577 12.6126H204.955Z" fill="#666465"/>
<path fill-rule="evenodd" clip-rule="evenodd" d="M36.6367 24.1745V21.1715L34.4595 24.1745H33.2583V19.9703H34.3844V22.8983L36.4865 19.9703H37.7628V24.1745H36.6367ZM44.3694 24.1745V22.2977H42.3424V24.1745H41.2913V19.9703H42.3424V21.5469H44.3694V19.9703H45.4955V24.1745H44.3694ZM52.1772 21.0965C52.1772 21.3968 51.8769 21.5469 51.4265 21.5469H50.1502V20.646H51.4265C51.8769 20.646 52.1772 20.7211 52.1772 21.0965ZM53.4535 22.8232C53.4535 22.4478 53.3034 21.9974 52.6277 21.8472C52.8529 21.7721 53.3034 21.5469 53.3034 20.9463C53.3034 20.4959 53.003 19.8953 51.6517 19.8953H49.0241V24.0995H51.2763C53.2283 24.1745 53.4535 23.1986 53.4535 22.8232ZM52.2523 22.8232C52.2523 23.2736 51.952 23.4238 51.4265 23.4238H50.0751V22.2977H51.5015C51.8769 22.2226 52.2523 22.4478 52.2523 22.8232ZM56.907 24.1745V19.9703H60.8109V20.646H57.958V21.5469H60.5106V22.2977H57.958V23.3487H60.8859V24.0995H56.907V24.1745ZM66.4415 24.2496C65.0151 24.2496 64.0391 23.4989 64.0391 21.9974C64.0391 20.5709 65.0901 19.7451 66.4415 19.7451C68.0181 19.7451 68.6937 20.646 68.6937 21.1715H67.5676C67.4925 20.9463 67.3424 20.4959 66.4415 20.4959C65.916 20.4959 65.1652 20.7962 65.1652 21.9223C65.1652 22.673 65.5406 23.3487 66.4415 23.3487C67.0421 23.3487 67.4925 23.0484 67.5676 22.5229H68.6937C68.5436 23.5739 67.7928 24.2496 66.4415 24.2496ZM74.3244 20.646V24.1745H73.2733V20.646H71.6217V19.9703H75.976V20.646H74.3244ZM82.3574 24.1745V21.1715L80.1802 24.1745H78.979V19.9703H80.0301V22.8983L82.1322 19.9703H83.4085V24.1745H82.3574ZM90.6907 25.0004V24.0995H86.937V19.8953H87.988V23.3487H90.0151V19.8953H91.0661V23.3487H91.5916V25.0004H90.6907ZM98.1232 24.1745V21.1715L95.946 24.1745H94.7448V19.9703H95.7958V22.8983L97.8979 19.9703H99.1742V24.1745H98.1232ZM106.381 22.0724C106.381 23.2736 105.556 23.4989 104.955 23.4989C104.354 23.4989 103.529 23.1986 103.529 22.0724C103.529 20.9463 104.429 20.5709 104.955 20.5709C105.556 20.4959 106.381 20.8712 106.381 22.0724ZM107.508 22.0724C107.508 20.0454 105.706 19.8202 105.03 19.8202C104.354 19.8202 102.478 20.0454 102.478 22.0724C102.478 24.0244 104.279 24.3247 105.03 24.3247C105.706 24.2496 107.508 23.9493 107.508 22.0724ZM114.039 24.1745V22.2977H112.012V24.1745H110.961V19.9703H112.012V21.5469H114.039V19.9703H115.09V24.1745H114.039ZM121.847 24.1745V22.2977H119.82V24.1745H118.769V19.9703H119.82V21.5469H121.847V19.9703H122.898V24.1745H121.847ZM129.354 22.5229H127.928L128.604 20.8712L129.354 22.5229ZM131.156 24.1745L129.354 19.9703H128.078L126.201 24.1745H127.402L127.778 23.2736H129.73L130.03 24.1745H131.156ZM137.463 21.7721H136.186C135.661 21.7721 135.285 21.4718 135.285 21.1715C135.285 20.9463 135.511 20.646 136.111 20.646H137.463V21.7721ZM138.589 24.1745V19.9703H135.961C134.91 19.9703 134.309 20.5709 134.309 21.2466C134.309 21.9223 134.91 22.2977 135.511 22.5229L134.234 24.2496H135.511L136.787 22.598H137.613V24.2496H138.589V24.1745ZM150.826 24.1745L149.174 22.2977L148.649 22.7481V24.1745H147.598V19.9703H148.649V21.622L150.676 19.9703H152.102L149.925 21.6971L152.177 24.1745H150.826ZM158.634 22.0724C158.634 23.2736 157.808 23.4989 157.207 23.4989C156.607 23.4989 155.781 23.1986 155.781 22.0724C155.781 20.9463 156.682 20.5709 157.207 20.5709C157.808 20.4959 158.634 20.8712 158.634 22.0724ZM159.76 22.0724C159.76 20.0454 157.958 19.8202 157.207 19.8202C156.532 19.8202 154.655 20.0454 154.655 22.0724C154.655 24.0244 156.457 24.3247 157.207 24.3247C157.883 24.2496 159.76 23.9493 159.76 22.0724ZM166.742 24.1745V20.646H166.667L165.691 24.1745H164.64L163.664 20.646V24.1745H162.613V19.9703H164.264L165.165 23.2736H165.24L166.141 19.9703H167.718V24.1745H166.742ZM174.099 24.1745V20.646H172.072V24.1745H170.946V19.9703H175.225V24.1745H174.099ZM181.156 22.5229H179.73L180.405 20.8712L181.156 22.5229ZM182.958 24.1745L181.156 19.9703H179.88L178.078 24.1745H179.204L179.58 23.2736H181.532L181.832 24.1745H182.958ZM188.889 24.1745V22.2977H186.862V24.1745H185.811V19.9703H186.862V21.5469H188.889V19.9703H189.94V24.1745H188.889ZM196.396 24.1745V21.1715H196.321L194.219 24.1745H193.018V19.9703H194.069V22.8983L196.171 19.9703H197.447V24.1745H196.396ZM203.604 21.7721H202.327C201.727 21.7721 201.426 21.4718 201.426 21.1715C201.426 20.9463 201.652 20.646 202.177 20.646H203.529V21.7721H203.604ZM204.805 24.1745V19.9703H202.102C201.126 19.9703 200.451 20.5709 200.451 21.2466C200.451 21.9223 201.051 22.2977 201.652 22.5229L200.375 24.2496H201.652L202.853 22.598H203.679V24.2496H204.805V24.1745Z" fill="#666465"/>
<path fill-rule="evenodd" clip-rule="evenodd" d="M13.1382 22.5977L13.2884 22.5226L13.5136 22.5977L13.5886 22.7479C13.6637 22.898 13.6637 23.0482 13.7388 23.1983H13.8139H14.0391L14.1893 23.2734C14.3394 23.4986 14.4145 23.6488 14.4896 23.874H23.2733L23.1232 23.7238C22.8229 23.2734 22.5977 22.7479 22.2974 22.2974L22.1472 21.9971L21.922 21.5467L21.0211 20.2704L20.4956 19.5196L19.97 18.844L19.5196 18.1683L19.1442 17.6428C18.6187 16.9671 18.0932 16.2163 17.6427 15.3905L17.4175 15.0151C17.1172 14.4896 16.967 13.889 16.7418 13.2133L16.6667 13.0632L16.5917 12.913V12.838L16.5166 12.6127L16.5917 12.4626C16.892 12.0872 17.2673 11.6368 17.7178 11.4115C18.1682 11.3365 18.6187 11.2614 19.1442 11.2614H19.2193L19.2944 11.1863C19.4445 11.1112 19.5947 11.1112 19.6697 11.1112L19.7448 11.1863V11.1112H19.6697C19.5947 11.0362 19.4445 11.0362 19.3694 10.886H19.2944L19.2193 10.8109C19.1442 10.6608 19.0691 10.5106 18.9941 10.3605H18.919V10.2854L18.8439 10.2103C18.5436 10.1353 18.1682 10.1353 17.7929 10.1353H17.4926C16.892 10.0602 16.2914 10.0602 15.6908 9.83496L15.5406 9.75988L15.1652 9.68481L14.8649 9.38451C14.4145 8.85898 13.964 8.1833 13.5136 7.5827L13.1382 6.83195L12.913 6.30643L12.6127 5.63075C12.1622 4.42955 11.7118 3.30342 11.3364 2.10222C11.1112 1.50162 10.8859 0.901021 10.6607 0.300421V0.0751953H2.47754V0.15027C2.47754 0.225345 2.47754 0.225346 2.55261 0.300421V0.375495C2.62769 0.600721 2.77784 0.750871 2.70276 0.976096C2.70276 1.05117 2.62769 1.12625 2.62769 1.20132V1.2764C2.70276 1.35147 2.77784 1.42655 2.92799 1.5767C3.00306 1.65177 3.15321 1.877 3.22829 2.02715C3.30336 2.1773 3.30336 2.25237 3.22829 2.4776H3.30336C3.37844 2.62775 3.45351 2.7779 3.45351 2.92805C3.45351 3.00312 3.45351 3.15327 3.45351 3.22835V3.30342L3.75382 3.22835L3.67874 3.90402H3.97904L3.90397 4.5797L4.12919 4.72985V4.88C4.12919 5.03015 4.20427 5.1803 4.20427 5.25538V5.33045L4.57964 5.25538L4.50457 5.63075V5.70583C4.50457 5.85598 4.50457 6.00613 4.50457 6.15628L4.87994 6.0812V6.45658C4.65472 6.60673 4.65472 6.75688 4.65472 6.90703H4.72979H4.80487H5.10517V7.20733C5.10517 7.35748 5.10517 7.50763 5.18024 7.65778V7.73285C5.25532 7.80793 5.33039 7.80793 5.40547 7.80793H5.70577L5.78084 8.03315L5.85592 8.10823C5.85592 8.1833 5.93099 8.40853 5.93099 8.4836V8.63376L6.23129 8.70883L6.30637 8.93406C6.38144 9.00913 6.38144 9.08421 6.38144 9.23435V9.30943L6.45652 9.38451C6.53159 9.53466 6.68174 9.6848 6.75682 9.83496L6.83189 9.91003L6.90697 9.98511L7.05712 10.0602V10.4356L7.58264 10.5857L7.65772 11.0362L8.33339 11.5617L8.10817 11.7869V11.862L8.03309 11.9371H8.10817V11.862L8.18325 11.9371L8.40847 12.6127L7.65772 12.3875H7.58264C7.35742 12.3124 7.13219 12.3124 6.98204 12.2374H6.83189C6.38144 12.2374 5.93099 12.3124 5.48054 12.3875H5.18024C4.72979 12.3875 4.35442 12.3124 3.97904 12.0872H3.90397L3.97904 12.1623L3.90397 12.3875L3.82889 12.6127H3.67874V12.6878L3.75382 12.7629C3.75382 12.913 3.75382 13.0632 3.75382 13.1383L3.67874 13.2133L3.75382 13.2884V13.4386L3.67874 13.5887L3.60367 13.6638L3.52859 13.7389L3.45351 13.8139H3.37844L3.30336 13.889V13.9641L3.37844 14.0392V14.1142C3.37844 14.2644 3.30336 14.4145 3.30336 14.5647L3.15321 14.7148L3.07814 14.7899L3.15321 14.865C3.30336 15.0902 3.37844 15.2404 3.30336 15.4656L3.22829 15.5407V15.6157V15.6908C3.30336 15.7659 3.37844 15.916 3.37844 16.0662V16.1413L3.52859 16.0662L3.67874 16.3665L3.75382 16.5166V16.5917L3.82889 16.6668V16.7419L3.90397 16.8169H3.97904L4.05412 16.7419C4.35442 16.6668 4.57964 16.7419 4.72979 17.0422L4.80487 17.1172L4.87994 17.1923H4.95502H5.03009L5.55562 17.0422L5.40547 17.5677V17.6428L5.48054 17.5677L5.70577 17.4926C5.78084 17.6428 5.93099 17.7929 6.00607 17.9431L6.08114 18.0181V18.0932H6.15622C6.23129 18.1683 6.38144 18.1683 6.45652 18.2434V18.1683L6.60667 18.0181C6.98204 17.4926 7.43249 16.9671 7.88294 16.3665L8.10817 16.2163C8.55862 15.9911 9.00907 15.7659 9.5346 15.5407L9.68475 15.4656L10.2103 15.2404L10.1352 15.6908C10.1352 15.7659 10.1352 15.7659 10.1352 15.7659H10.2103L10.961 15.3905L10.5856 16.1413V16.2163C10.5106 16.2914 10.5106 16.4416 10.5106 16.5166L10.4355 16.5917H10.5106L10.5856 16.6668L10.7358 16.7419L10.8109 16.892C10.8109 17.0422 10.8859 17.2674 10.8859 17.4175V17.4926L11.1862 17.6428L11.2613 18.0932H11.3364L11.4865 18.1683L11.5616 18.2434C11.6367 18.5437 11.6367 18.6938 11.6367 18.919V18.9941L11.7118 19.0692L11.7868 19.1443V19.2193C11.8619 19.4446 11.8619 19.6698 11.8619 19.895V19.9701L12.3124 19.7449V20.2704C12.2373 20.4205 12.2373 20.5707 12.2373 20.7208V20.7959L12.4625 20.7208L12.5376 21.0211C12.6127 21.1713 12.6127 21.3214 12.6877 21.3965V21.4716L12.913 21.3965L12.9881 21.6968C13.0631 22.2974 13.0631 22.4476 13.1382 22.5977Z" fill="#3A96DB"/>
<path fill-rule="evenodd" clip-rule="evenodd" d="M0 0.0751953V24.0241H13.8889V23.9491V23.874L13.8138 23.7989C13.5135 24.0241 13.3634 23.874 13.2883 23.7238C13.2132 23.6488 13.2132 23.4235 13.1381 23.3485V23.2734H13.0631H12.9129L12.7628 23.1232C12.6877 22.9731 12.5375 22.8229 12.4625 22.5977V22.4476H12.3874V22.3725C12.3123 22.2974 12.1622 22.1473 12.0871 21.9971V21.922L12.012 21.847H11.7868L11.6366 21.6968C11.5616 21.4716 11.5616 21.3214 11.5616 21.0962V20.9461H11.4865C11.3363 20.871 11.2613 20.7208 11.1862 20.5707V20.4205C11.1111 20.1953 11.1111 20.0452 11.1111 19.895V19.8199V19.7449H11.036L10.7357 19.6698C10.8108 19.5196 10.8108 19.3695 10.8108 19.2193V19.1443V19.0692L10.5856 19.1443L10.3604 18.3184L9.90991 18.1683C9.90991 17.868 9.90991 17.6428 9.90991 17.3425H9.83484H9.75976C9.45946 17.1923 9.45946 17.0422 9.45946 16.7419L9.53453 16.6668V16.5917L9.38438 16.5166L9.53453 16.3665V16.2914L9.45946 16.3665C9.00901 16.5166 8.55856 16.6668 8.18318 16.9671L8.10811 17.1172L7.88288 17.3425C7.50751 17.868 7.20721 18.3935 6.75676 18.844L6.53153 18.919H6.38138C6.08108 18.919 5.85586 18.844 5.63063 18.6187L5.55556 18.5437L5.48048 18.4686H5.40541L5.25526 18.5437C4.95496 18.4686 4.87988 18.3184 4.8048 18.0932H4.72973L4.57958 18.0181C4.5045 17.9431 4.42943 17.7929 4.35435 17.6428V17.5677H4.27928L4.2042 17.6428L4.12913 17.7178C3.97898 17.7178 3.82883 17.6428 3.67868 17.6428C3.45345 17.4926 3.45345 17.2674 3.37838 16.9671V16.892H3.15315C2.92793 16.8169 2.85285 16.6668 2.85285 16.4416V16.3665V16.2914V16.2163L2.77778 16.1413C2.77778 16.0662 2.7027 16.0662 2.7027 15.9911L2.4024 15.5407C2.47748 15.4656 2.7027 15.3905 2.7027 15.2404H2.77778C2.7027 15.1653 2.7027 15.0151 2.55255 14.9401V14.865L2.4024 14.7148C2.47748 14.6398 2.62763 14.4896 2.7027 14.3395L2.77778 14.2644V14.1893V14.1142C2.7027 13.889 2.77778 13.7389 2.85285 13.5887L2.92793 13.5136L3.003 13.4386L2.92793 13.2884L3.003 12.9881L3.07808 12.913L3.003 12.838V12.7629C2.92793 12.5377 2.92793 12.3875 3.07808 12.2374L3.15315 12.1623V12.0872V12.0121C3.15315 11.7118 3.22823 11.6368 3.45345 11.5617H3.67868C3.97898 11.6368 4.27928 11.7869 4.57958 11.862H4.8048H5.03003C5.40541 11.862 5.85586 11.7869 6.23123 11.7869C6.45646 11.7118 6.68168 11.7118 6.90691 11.7118L7.05706 11.7869H7.13213L7.20721 11.7118V11.6368L6.90691 11.2614L6.83183 10.9611L6.30631 10.886V10.3605H6.23123L6.15616 10.2854V10.1353V10.0602L6.08108 9.98511V9.91003C6.00601 9.75988 5.85586 9.60973 5.78078 9.45958L5.70571 9.38451V9.30943V9.23435V9.15928V9.0842L5.48048 9.00913H5.40541C5.33033 8.78391 5.33033 8.55868 5.25526 8.33345H5.18018C5.03003 8.33345 4.87988 8.25838 4.8048 8.1833L4.72973 8.03315C4.65465 7.95808 4.65465 7.80793 4.65465 7.65778V7.5827L4.57958 7.50763C4.27928 7.43255 4.2042 7.20733 4.2042 6.83195H4.12913C3.97898 6.75688 3.82883 6.6818 3.82883 6.53165C3.82883 6.30643 3.82883 6.15628 3.82883 6.00613V5.85598H3.6036L3.45345 5.7809L3.37838 5.63075C3.37838 5.4806 3.37838 5.33045 3.37838 5.10523L3.15315 4.88L3.22823 4.42955L2.92793 4.35447L3.003 3.75387L2.92793 3.6788L2.85285 3.60372L2.77778 3.45357C2.77778 3.3785 2.77778 3.15327 2.77778 3.00312V2.85297V2.7779C2.7027 2.70282 2.62763 2.70282 2.55255 2.70282L2.32733 2.55267L2.4024 2.25237C2.47748 2.1773 2.47748 2.1773 2.47748 2.1773L2.55255 2.10222C2.47748 2.02715 2.4024 1.95207 2.32733 1.877C2.17718 1.65177 2.02703 1.5767 1.95195 1.35147C1.95195 1.20132 1.95195 1.05117 2.02703 0.901021L2.1021 0.825946L2.17718 0.750871L2.1021 0.675796V0.600721C2.02703 0.525646 1.87688 0.30042 1.87688 0.15027V0.0751953H0ZM24.024 24.0241L23.949 23.7989C23.6487 23.2734 23.3484 22.7479 23.048 22.2223L22.973 22.0722L22.7477 21.6968L22.4474 21.2464L21.997 20.5707C21.0961 19.2944 20.1201 18.0932 19.2192 16.8169C18.8438 16.2914 18.4685 15.7659 18.0931 15.1653L17.8679 14.7899C17.5676 14.2644 17.4174 13.6638 17.1922 13.1383L17.1171 12.913L17.042 12.838C17.2673 12.5377 17.4925 12.3875 17.7177 12.1623L17.7928 12.0872L17.9429 12.0121C18.3934 11.9371 18.8438 11.9371 19.2192 11.9371L19.2943 11.862C19.3694 11.7869 19.4444 11.7869 19.5195 11.7869H19.6697C19.7447 11.862 19.8198 11.862 19.8949 11.9371L20.3453 12.3875V11.7118V11.6368C20.3453 11.3365 20.3453 11.0362 20.1952 10.7359C20.1201 10.6608 19.8949 10.5106 19.7447 10.4356H19.6697V10.3605C19.5195 10.1353 19.3694 9.91003 19.2192 9.83495L19.0691 9.75988C18.7688 9.68481 18.3934 9.6848 18.018 9.60973H17.7177H17.4174C16.8919 9.53465 16.3664 9.53465 15.9159 9.45958L15.6907 9.38451L15.6156 9.30943L15.5405 9.23435L15.3153 9.0842C14.7147 8.33345 14.1141 7.5827 13.6637 6.6818L13.3634 6.0812C12.8378 4.65477 12.3123 3.30342 11.8619 1.95207L11.7868 1.72685L11.7117 1.5767C11.5616 1.20132 11.4114 0.825946 11.2613 0.525645L11.1862 0.15027H24.1742V24.0992H24.024V24.0241Z" fill="#666465"/>
</svg>
