<svg width="16" height="6" viewBox="0 0 16 6" fill="none" xmlns="http://www.w3.org/2000/svg">
<path d="M0.20409 0.4H2.31609C3.92676 0.4 4.73209 1.02667 4.73209 2.28C4.73209 3.53333 3.92676 4.16 2.31609 4.16H1.40409V6H0.20409V0.4ZM2.37209 3.104C3.12942 3.104 3.50809 2.82933 3.50809 2.28C3.50809 1.73067 3.12942 1.456 2.37209 1.456H1.40409V3.104H2.37209ZM5.53221 0.4H7.62821C8.58821 0.4 9.31621 0.656 9.81221 1.168C10.3135 1.67467 10.5642 2.352 10.5642 3.2C10.5642 4.048 10.3135 4.728 9.81221 5.24C9.31621 5.74667 8.58821 6 7.62821 6H5.53221V0.4ZM8.90021 4.504C9.19355 4.21067 9.34021 3.776 9.34021 3.2C9.34021 2.624 9.19355 2.18933 8.90021 1.896C8.61221 1.60267 8.18821 1.456 7.62821 1.456H6.73221V4.944H7.62821C8.18821 4.944 8.61221 4.79733 8.90021 4.504ZM11.4697 0.4H15.4217V1.48H12.6697V2.784H15.1897V3.864H12.6697V6H11.4697V0.4Z" fill="#666465"/>
</svg>
