<svg width="28" height="36" viewBox="0 0 28 36" fill="none" xmlns="http://www.w3.org/2000/svg">
<path d="M0 0H20.487L24.0082 3.53571L27.5294 7.07143V36H0V0Z" fill="white"/>
<path d="M0.428571 0.428571H20.309L23.7045 3.83814L27.1008 7.24843V35.5714H0.428571V0.428571Z" stroke="#666465" stroke-opacity="0.5" stroke-width="0.857143"/>
<path d="M7.03208 15.6287H8.84236C10.2229 15.6287 10.9132 16.1659 10.9132 17.2401C10.9132 18.3144 10.2229 18.8516 8.84236 18.8516H8.06065V20.4287H7.03208V15.6287ZM8.89036 17.9464C9.53951 17.9464 9.86408 17.711 9.86408 17.2401C9.86408 16.7693 9.53951 16.5339 8.89036 16.5339H8.06065V17.9464H8.89036ZM11.599 15.6287H13.3956C14.2185 15.6287 14.8425 15.8481 15.2676 16.287C15.6973 16.7213 15.9122 17.3019 15.9122 18.0287C15.9122 18.7556 15.6973 19.3384 15.2676 19.7773C14.8425 20.2116 14.2185 20.4287 13.3956 20.4287H11.599V15.6287ZM14.4859 19.1464C14.7373 18.895 14.863 18.5224 14.863 18.0287C14.863 17.535 14.7373 17.1624 14.4859 16.911C14.239 16.6596 13.8756 16.5339 13.3956 16.5339H12.6276V19.5236H13.3956C13.8756 19.5236 14.239 19.3979 14.4859 19.1464ZM16.6883 15.6287H20.0758V16.5544H17.7169V17.6721H19.8769V18.5979H17.7169V20.4287H16.6883V15.6287Z" fill="#666465"/>
</svg>
